<svg width="361" height="113" viewBox="0 0 361 113" fill="none" xmlns="http://www.w3.org/2000/svg">
<path d="M180.847 52.3445C157.563 52.3445 138.731 -2.77482 138.731 23.0968C138.731 34.7291 121.974 58.3946 127.449 68.2218C133.165 78.517 126.224 66.7048 132 77C168.1 77 171.1 94.5615 173.266 99.9765C174.831 103.653 176.094 112.511 180.847 112.511C185.6 112.511 186.864 103.653 188.368 99.9765C190.594 94.5615 198.272 77 225 77C230.776 66.7717 220.196 78.5839 225.912 68.2218C231.447 58.3946 222.964 34.7291 222.964 23.0968C222.964 -2.77482 204.132 52.3445 180.847 52.3445ZM180.847 41.4811C172.544 41.4811 165.806 33.9937 165.806 24.7681C165.806 15.5426 172.544 36.4673 180.847 36.4673C189.15 36.4673 195.889 15.5426 195.889 24.7681C195.889 33.9937 189.15 41.4811 180.847 41.4811Z" fill="black"/>
<rect width="361" height="77" rx="8" fill="black"/>
<path d="M30.8493 30.3636C30.8493 32.0092 30.5411 33.4187 29.9246 34.592C29.3131 35.7603 28.4779 36.6552 27.4189 37.2766C26.365 37.8981 25.1693 38.2088 23.8319 38.2088C22.4946 38.2088 21.2964 37.8981 20.2375 37.2766C19.1835 36.6502 18.3483 35.7528 17.7318 34.5845C17.1203 33.4112 16.8145 32.0043 16.8145 30.3636C16.8145 28.718 17.1203 27.3111 17.7318 26.1428C18.3483 24.9695 19.1835 24.0721 20.2375 23.4506C21.2964 22.8292 22.4946 22.5185 23.8319 22.5185C25.1693 22.5185 26.365 22.8292 27.4189 23.4506C28.4779 24.0721 29.3131 24.9695 29.9246 26.1428C30.5411 27.3111 30.8493 28.718 30.8493 30.3636ZM28.0677 30.3636C28.0677 29.2053 27.8863 28.2283 27.5234 27.4329C27.1654 26.6325 26.6682 26.0284 26.0319 25.6207C25.3955 25.2081 24.6622 25.0018 23.8319 25.0018C23.0017 25.0018 22.2684 25.2081 21.632 25.6207C20.9957 26.0284 20.496 26.6325 20.1331 27.4329C19.7751 28.2283 19.5962 29.2053 19.5962 30.3636C19.5962 31.522 19.7751 32.5014 20.1331 33.3018C20.496 34.0973 20.9957 34.7013 21.632 35.114C22.2684 35.5217 23.0017 35.7255 23.8319 35.7255C24.6622 35.7255 25.3955 35.5217 26.0319 35.114C26.6682 34.7013 27.1654 34.0973 27.5234 33.3018C27.8863 32.5014 28.0677 31.522 28.0677 30.3636ZM35.2357 38V26.5455H37.8532V28.4545H37.9726C38.1814 27.7933 38.5393 27.2837 39.0464 26.9258C39.5585 26.5629 40.1427 26.3814 40.7989 26.3814C40.9481 26.3814 41.1146 26.3888 41.2986 26.4038C41.4875 26.4137 41.6441 26.4311 41.7684 26.456V28.9393C41.654 28.8995 41.4726 28.8647 41.224 28.8349C40.9804 28.8001 40.7442 28.7827 40.5155 28.7827C40.0233 28.7827 39.5809 28.8896 39.1881 29.1033C38.8003 29.3121 38.4946 29.603 38.2709 29.9759C38.0471 30.3487 37.9353 30.7788 37.9353 31.266V38H35.2357ZM49.2309 38.2013C48.3311 38.2013 47.5257 37.9702 46.8147 37.5078C46.1038 37.0455 45.542 36.3743 45.1293 35.4943C44.7167 34.6143 44.5104 33.5455 44.5104 32.2876C44.5104 31.0149 44.7192 29.9411 45.1368 29.0661C45.5594 28.1861 46.1286 27.5224 46.8445 27.0749C47.5605 26.6225 48.3584 26.3963 49.2384 26.3963C49.9095 26.3963 50.4614 26.5107 50.8939 26.7393C51.3264 26.9631 51.6695 27.234 51.923 27.5522C52.1766 27.8654 52.373 28.1612 52.5122 28.4396H52.624V22.7273H55.3311V38H52.6762V36.1953H52.5122C52.373 36.4737 52.1716 36.7695 51.9081 37.0827C51.6446 37.391 51.2966 37.6545 50.8641 37.8732C50.4315 38.092 49.8872 38.2013 49.2309 38.2013ZM49.9841 35.9865C50.5558 35.9865 51.0431 35.8324 51.4458 35.5241C51.8485 35.2109 52.1542 34.7759 52.363 34.2191C52.5718 33.6623 52.6762 33.0135 52.6762 32.2727C52.6762 31.532 52.5718 30.8881 52.363 30.3413C52.1592 29.7944 51.8559 29.3693 51.4532 29.0661C51.0555 28.7628 50.5658 28.6112 49.9841 28.6112C49.3825 28.6112 48.8804 28.7678 48.4777 29.081C48.075 29.3942 47.7717 29.8267 47.5679 30.3786C47.3641 30.9304 47.2622 31.5618 47.2622 32.2727C47.2622 32.9886 47.3641 33.6275 47.5679 34.1893C47.7767 34.7461 48.0825 35.1861 48.4852 35.5092C48.8928 35.8274 49.3925 35.9865 49.9841 35.9865ZM65.1688 38.2237C64.0203 38.2237 63.0285 37.9851 62.1933 37.5078C61.363 37.0256 60.7242 36.3445 60.2767 35.4645C59.8293 34.5795 59.6055 33.538 59.6055 32.3398C59.6055 31.1616 59.8293 30.1275 60.2767 29.2376C60.7291 28.3427 61.3605 27.6467 62.1709 27.1495C62.9813 26.6474 63.9333 26.3963 65.0271 26.3963C65.733 26.3963 66.3992 26.5107 67.0256 26.7393C67.657 26.9631 68.2139 27.3111 68.6961 27.7834C69.1833 28.2557 69.5661 28.8572 69.8445 29.5881C70.123 30.3139 70.2622 31.179 70.2622 32.1832V33.011H60.8733V31.1914H67.6744C67.6695 30.6744 67.5576 30.2145 67.3389 29.8118C67.1201 29.4041 66.8144 29.0835 66.4216 28.8498C66.0338 28.6161 65.5814 28.4993 65.0644 28.4993C64.5125 28.4993 64.0278 28.6335 63.6102 28.902C63.1926 29.1655 62.8669 29.5135 62.6332 29.946C62.4046 30.3736 62.2877 30.8434 62.2828 31.3555V32.9439C62.2828 33.6101 62.4046 34.1818 62.6482 34.6591C62.8918 35.1314 63.2323 35.4943 63.6698 35.7479C64.1073 35.9964 64.6194 36.1207 65.206 36.1207C65.5988 36.1207 65.9543 36.0661 66.2725 35.9567C66.5906 35.8423 66.8666 35.6758 67.1002 35.457C67.3339 35.2383 67.5104 34.9673 67.6297 34.6442L70.1503 34.9276C69.9912 35.5937 69.6879 36.1754 69.2405 36.6726C68.798 37.1648 68.2313 37.5476 67.5402 37.821C66.8492 38.0895 66.0587 38.2237 65.1688 38.2237ZM74.436 38V26.5455H77.0535V28.4545H77.1728C77.3816 27.7933 77.7396 27.2837 78.2467 26.9258C78.7588 26.5629 79.3429 26.3814 79.9992 26.3814C80.1483 26.3814 80.3149 26.3888 80.4988 26.4038C80.6878 26.4137 80.8444 26.4311 80.9686 26.456V28.9393C80.8543 28.8995 80.6728 28.8647 80.4243 28.8349C80.1807 28.8001 79.9445 28.7827 79.7158 28.7827C79.2236 28.7827 78.7811 28.8896 78.3884 29.1033C78.0006 29.3121 77.6949 29.603 77.4711 29.9759C77.2474 30.3487 77.1356 30.7788 77.1356 31.266V38H74.436ZM94.1151 38L90.8786 26.5455H93.6304L95.6439 34.5994H95.7483L97.8065 26.5455H100.528L102.587 34.5547H102.699L104.682 26.5455H107.441L104.198 38H101.386L99.2383 30.2592H99.0817L96.934 38H94.1151ZM111.216 38V26.5455H113.916V38H111.216ZM112.574 24.9197C112.146 24.9197 111.778 24.7781 111.47 24.4947C111.162 24.2063 111.008 23.8608 111.008 23.4581C111.008 23.0504 111.162 22.7049 111.47 22.4215C111.778 22.1332 112.146 21.989 112.574 21.989C113.006 21.989 113.374 22.1332 113.677 22.4215C113.986 22.7049 114.14 23.0504 114.14 23.4581C114.14 23.8608 113.986 24.2063 113.677 24.4947C113.374 24.7781 113.006 24.9197 112.574 24.9197ZM121.281 22.7273V38H118.582V22.7273H121.281ZM128.647 22.7273V38H125.948V22.7273H128.647ZM140.531 38V22.7273H143.231V28.4396H143.343C143.482 28.1612 143.678 27.8654 143.932 27.5522C144.186 27.234 144.529 26.9631 144.961 26.7393C145.394 26.5107 145.945 26.3963 146.617 26.3963C147.502 26.3963 148.299 26.6225 149.01 27.0749C149.726 27.5224 150.293 28.1861 150.711 29.0661C151.133 29.9411 151.345 31.0149 151.345 32.2876C151.345 33.5455 151.138 34.6143 150.726 35.4943C150.313 36.3743 149.751 37.0455 149.04 37.5078C148.329 37.9702 147.524 38.2013 146.624 38.2013C145.968 38.2013 145.423 38.092 144.991 37.8732C144.558 37.6545 144.21 37.391 143.947 37.0827C143.688 36.7695 143.487 36.4737 143.343 36.1953H143.186V38H140.531ZM143.179 32.2727C143.179 33.0135 143.283 33.6623 143.492 34.2191C143.706 34.7759 144.011 35.2109 144.409 35.5241C144.812 35.8324 145.299 35.9865 145.871 35.9865C146.467 35.9865 146.967 35.8274 147.37 35.5092C147.773 35.1861 148.076 34.7461 148.28 34.1893C148.488 33.6275 148.593 32.9886 148.593 32.2727C148.593 31.5618 148.491 30.9304 148.287 30.3786C148.083 29.8267 147.78 29.3942 147.377 29.081C146.975 28.7678 146.472 28.6112 145.871 28.6112C145.294 28.6112 144.804 28.7628 144.402 29.0661C143.999 29.3693 143.693 29.7944 143.485 30.3413C143.281 30.8881 143.179 31.532 143.179 32.2727ZM160.601 38.2237C159.452 38.2237 158.46 37.9851 157.625 37.5078C156.795 37.0256 156.156 36.3445 155.709 35.4645C155.261 34.5795 155.037 33.538 155.037 32.3398C155.037 31.1616 155.261 30.1275 155.709 29.2376C156.161 28.3427 156.792 27.6467 157.603 27.1495C158.413 26.6474 159.365 26.3963 160.459 26.3963C161.165 26.3963 161.831 26.5107 162.458 26.7393C163.089 26.9631 163.646 27.3111 164.128 27.7834C164.615 28.2557 164.998 28.8572 165.276 29.5881C165.555 30.3139 165.694 31.179 165.694 32.1832V33.011H156.305V31.1914H163.106C163.101 30.6744 162.989 30.2145 162.771 29.8118C162.552 29.4041 162.246 29.0835 161.853 28.8498C161.466 28.6161 161.013 28.4993 160.496 28.4993C159.944 28.4993 159.46 28.6335 159.042 28.902C158.624 29.1655 158.299 29.5135 158.065 29.946C157.836 30.3736 157.72 30.8434 157.715 31.3555V32.9439C157.715 33.6101 157.836 34.1818 158.08 34.6591C158.324 35.1314 158.664 35.4943 159.102 35.7479C159.539 35.9964 160.051 36.1207 160.638 36.1207C161.031 36.1207 161.386 36.0661 161.704 35.9567C162.023 35.8423 162.298 35.6758 162.532 35.457C162.766 35.2383 162.942 34.9673 163.062 34.6442L165.582 34.9276C165.423 35.5937 165.12 36.1754 164.672 36.6726C164.23 37.1648 163.663 37.5476 162.972 37.821C162.281 38.0895 161.491 38.2237 160.601 38.2237ZM181.218 38.2013C180.318 38.2013 179.512 37.9702 178.801 37.5078C178.09 37.0455 177.529 36.3743 177.116 35.4943C176.703 34.6143 176.497 33.5455 176.497 32.2876C176.497 31.0149 176.706 29.9411 177.123 29.0661C177.546 28.1861 178.115 27.5224 178.831 27.0749C179.547 26.6225 180.345 26.3963 181.225 26.3963C181.896 26.3963 182.448 26.5107 182.881 26.7393C183.313 26.9631 183.656 27.234 183.91 27.5522C184.163 27.8654 184.36 28.1612 184.499 28.4396H184.611V22.7273H187.318V38H184.663V36.1953H184.499C184.36 36.4737 184.158 36.7695 183.895 37.0827C183.631 37.391 183.283 37.6545 182.851 37.8732C182.418 38.092 181.874 38.2013 181.218 38.2013ZM181.971 35.9865C182.542 35.9865 183.03 35.8324 183.432 35.5241C183.835 35.2109 184.141 34.7759 184.35 34.2191C184.558 33.6623 184.663 33.0135 184.663 32.2727C184.663 31.532 184.558 30.8881 184.35 30.3413C184.146 29.7944 183.843 29.3693 183.44 29.0661C183.042 28.7628 182.552 28.6112 181.971 28.6112C181.369 28.6112 180.867 28.7678 180.464 29.081C180.062 29.3942 179.758 29.8267 179.555 30.3786C179.351 30.9304 179.249 31.5618 179.249 32.2727C179.249 32.9886 179.351 33.6275 179.555 34.1893C179.763 34.7461 180.069 35.1861 180.472 35.5092C180.879 35.8274 181.379 35.9865 181.971 35.9865ZM197.155 38.2237C196.007 38.2237 195.015 37.9851 194.18 37.5078C193.35 37.0256 192.711 36.3445 192.263 35.4645C191.816 34.5795 191.592 33.538 191.592 32.3398C191.592 31.1616 191.816 30.1275 192.263 29.2376C192.716 28.3427 193.347 27.6467 194.158 27.1495C194.968 26.6474 195.92 26.3963 197.014 26.3963C197.72 26.3963 198.386 26.5107 199.012 26.7393C199.644 26.9631 200.201 27.3111 200.683 27.7834C201.17 28.2557 201.553 28.8572 201.831 29.5881C202.11 30.3139 202.249 31.179 202.249 32.1832V33.011H192.86V31.1914H199.661C199.656 30.6744 199.544 30.2145 199.326 29.8118C199.107 29.4041 198.801 29.0835 198.408 28.8498C198.02 28.6161 197.568 28.4993 197.051 28.4993C196.499 28.4993 196.014 28.6335 195.597 28.902C195.179 29.1655 194.854 29.5135 194.62 29.946C194.391 30.3736 194.274 30.8434 194.269 31.3555V32.9439C194.269 33.6101 194.391 34.1818 194.635 34.6591C194.878 35.1314 195.219 35.4943 195.656 35.7479C196.094 35.9964 196.606 36.1207 197.193 36.1207C197.585 36.1207 197.941 36.0661 198.259 35.9567C198.577 35.8423 198.853 35.6758 199.087 35.457C199.321 35.2383 199.497 34.9673 199.616 34.6442L202.137 34.9276C201.978 35.5937 201.675 36.1754 201.227 36.6726C200.785 37.1648 200.218 37.5476 199.527 37.821C198.836 38.0895 198.045 38.2237 197.155 38.2237ZM209.122 22.7273V38H206.423V22.7273H209.122ZM213.788 38V26.5455H216.488V38H213.788ZM215.145 24.9197C214.718 24.9197 214.35 24.7781 214.042 24.4947C213.734 24.2063 213.579 23.8608 213.579 23.4581C213.579 23.0504 213.734 22.7049 214.042 22.4215C214.35 22.1332 214.718 21.989 215.145 21.989C215.578 21.989 215.946 22.1332 216.249 22.4215C216.557 22.7049 216.712 23.0504 216.712 23.4581C216.712 23.8608 216.557 24.2063 216.249 24.4947C215.946 24.7781 215.578 24.9197 215.145 24.9197ZM231.385 26.5455L227.306 38H224.323L220.244 26.5455H223.123L225.755 35.0543H225.874L228.514 26.5455H231.385ZM239.825 38.2237C238.676 38.2237 237.685 37.9851 236.849 37.5078C236.019 37.0256 235.38 36.3445 234.933 35.4645C234.485 34.5795 234.262 33.538 234.262 32.3398C234.262 31.1616 234.485 30.1275 234.933 29.2376C235.385 28.3427 236.017 27.6467 236.827 27.1495C237.637 26.6474 238.589 26.3963 239.683 26.3963C240.389 26.3963 241.055 26.5107 241.682 26.7393C242.313 26.9631 242.87 27.3111 243.352 27.7834C243.839 28.2557 244.222 28.8572 244.501 29.5881C244.779 30.3139 244.918 31.179 244.918 32.1832V33.011H235.529V31.1914H242.33C242.325 30.6744 242.214 30.2145 241.995 29.8118C241.776 29.4041 241.47 29.0835 241.078 28.8498C240.69 28.6161 240.237 28.4993 239.72 28.4993C239.169 28.4993 238.684 28.6335 238.266 28.902C237.849 29.1655 237.523 29.5135 237.289 29.946C237.061 30.3736 236.944 30.8434 236.939 31.3555V32.9439C236.939 33.6101 237.061 34.1818 237.304 34.6591C237.548 35.1314 237.888 35.4943 238.326 35.7479C238.763 35.9964 239.275 36.1207 239.862 36.1207C240.255 36.1207 240.61 36.0661 240.928 35.9567C241.247 35.8423 241.523 35.6758 241.756 35.457C241.99 35.2383 242.166 34.9673 242.286 34.6442L244.806 34.9276C244.647 35.5937 244.344 36.1754 243.897 36.6726C243.454 37.1648 242.887 37.5476 242.196 37.821C241.505 38.0895 240.715 38.2237 239.825 38.2237ZM249.092 38V26.5455H251.71V28.4545H251.829C252.038 27.7933 252.396 27.2837 252.903 26.9258C253.415 26.5629 253.999 26.3814 254.655 26.3814C254.804 26.3814 254.971 26.3888 255.155 26.4038C255.344 26.4137 255.5 26.4311 255.625 26.456V28.9393C255.51 28.8995 255.329 28.8647 255.08 28.8349C254.837 28.8001 254.601 28.7827 254.372 28.7827C253.88 28.7827 253.437 28.8896 253.044 29.1033C252.657 29.3121 252.351 29.603 252.127 29.9759C251.903 30.3487 251.792 30.7788 251.792 31.266V38H249.092ZM263.907 38.2237C262.759 38.2237 261.767 37.9851 260.932 37.5078C260.102 37.0256 259.463 36.3445 259.015 35.4645C258.568 34.5795 258.344 33.538 258.344 32.3398C258.344 31.1616 258.568 30.1275 259.015 29.2376C259.468 28.3427 260.099 27.6467 260.91 27.1495C261.72 26.6474 262.672 26.3963 263.766 26.3963C264.472 26.3963 265.138 26.5107 265.764 26.7393C266.396 26.9631 266.953 27.3111 267.435 27.7834C267.922 28.2557 268.305 28.8572 268.583 29.5881C268.862 30.3139 269.001 31.179 269.001 32.1832V33.011H259.612V31.1914H266.413C266.408 30.6744 266.296 30.2145 266.078 29.8118C265.859 29.4041 265.553 29.0835 265.16 28.8498C264.773 28.6161 264.32 28.4993 263.803 28.4993C263.251 28.4993 262.767 28.6335 262.349 28.902C261.931 29.1655 261.606 29.5135 261.372 29.946C261.143 30.3736 261.026 30.8434 261.021 31.3555V32.9439C261.021 33.6101 261.143 34.1818 261.387 34.6591C261.631 35.1314 261.971 35.4943 262.409 35.7479C262.846 35.9964 263.358 36.1207 263.945 36.1207C264.338 36.1207 264.693 36.0661 265.011 35.9567C265.329 35.8423 265.605 35.6758 265.839 35.457C266.073 35.2383 266.249 34.9673 266.368 34.6442L268.889 34.9276C268.73 35.5937 268.427 36.1754 267.979 36.6726C267.537 37.1648 266.97 37.5476 266.279 37.821C265.588 38.0895 264.797 38.2237 263.907 38.2237ZM277.425 38.2013C276.526 38.2013 275.72 37.9702 275.009 37.5078C274.298 37.0455 273.737 36.3743 273.324 35.4943C272.911 34.6143 272.705 33.5455 272.705 32.2876C272.705 31.0149 272.914 29.9411 273.331 29.0661C273.754 28.1861 274.323 27.5224 275.039 27.0749C275.755 26.6225 276.553 26.3963 277.433 26.3963C278.104 26.3963 278.656 26.5107 279.088 26.7393C279.521 26.9631 279.864 27.234 280.118 27.5522C280.371 27.8654 280.567 28.1612 280.707 28.4396H280.819V22.7273H283.526V38H280.871V36.1953H280.707C280.567 36.4737 280.366 36.7695 280.103 37.0827C279.839 37.391 279.491 37.6545 279.059 37.8732C278.626 38.092 278.082 38.2013 277.425 38.2013ZM278.179 35.9865C278.75 35.9865 279.238 35.8324 279.64 35.5241C280.043 35.2109 280.349 34.7759 280.558 34.2191C280.766 33.6623 280.871 33.0135 280.871 32.2727C280.871 31.532 280.766 30.8881 280.558 30.3413C280.354 29.7944 280.05 29.3693 279.648 29.0661C279.25 28.7628 278.76 28.6112 278.179 28.6112C277.577 28.6112 277.075 28.7678 276.672 29.081C276.27 29.3942 275.966 29.8267 275.762 30.3786C275.559 30.9304 275.457 31.5618 275.457 32.2727C275.457 32.9886 275.559 33.6275 275.762 34.1893C275.971 34.7461 276.277 35.1861 276.68 35.5092C277.087 35.8274 277.587 35.9865 278.179 35.9865ZM298.091 31.2884V38H295.391V22.7273H298.031V28.4918H298.165C298.434 27.8455 298.849 27.3359 299.411 26.9631C299.978 26.5852 300.698 26.3963 301.573 26.3963C302.369 26.3963 303.062 26.5629 303.654 26.896C304.246 27.229 304.703 27.7163 305.026 28.3576C305.354 28.9989 305.518 29.782 305.518 30.7067V38H302.819V31.1243C302.819 30.3537 302.62 29.7546 302.222 29.3271C301.829 28.8945 301.278 28.6783 300.567 28.6783C300.089 28.6783 299.662 28.7827 299.284 28.9915C298.911 29.1953 298.618 29.4911 298.404 29.8789C298.195 30.2667 298.091 30.7365 298.091 31.2884ZM315.231 38.2237C314.083 38.2237 313.091 37.9851 312.256 37.5078C311.425 37.0256 310.787 36.3445 310.339 35.4645C309.892 34.5795 309.668 33.538 309.668 32.3398C309.668 31.1616 309.892 30.1275 310.339 29.2376C310.792 28.3427 311.423 27.6467 312.233 27.1495C313.044 26.6474 313.996 26.3963 315.089 26.3963C315.795 26.3963 316.462 26.5107 317.088 26.7393C317.719 26.9631 318.276 27.3111 318.759 27.7834C319.246 28.2557 319.629 28.8572 319.907 29.5881C320.185 30.3139 320.325 31.179 320.325 32.1832V33.011H310.936V31.1914H317.737C317.732 30.6744 317.62 30.2145 317.401 29.8118C317.183 29.4041 316.877 29.0835 316.484 28.8498C316.096 28.6161 315.644 28.4993 315.127 28.4993C314.575 28.4993 314.09 28.6335 313.673 28.902C313.255 29.1655 312.929 29.5135 312.696 29.946C312.467 30.3736 312.35 30.8434 312.345 31.3555V32.9439C312.345 33.6101 312.467 34.1818 312.711 34.6591C312.954 35.1314 313.295 35.4943 313.732 35.7479C314.17 35.9964 314.682 36.1207 315.268 36.1207C315.661 36.1207 316.017 36.0661 316.335 35.9567C316.653 35.8423 316.929 35.6758 317.163 35.457C317.396 35.2383 317.573 34.9673 317.692 34.6442L320.213 34.9276C320.054 35.5937 319.75 36.1754 319.303 36.6726C318.86 37.1648 318.294 37.5476 317.603 37.821C316.912 38.0895 316.121 38.2237 315.231 38.2237ZM324.498 38V26.5455H327.116V28.4545H327.235C327.444 27.7933 327.802 27.2837 328.309 26.9258C328.821 26.5629 329.405 26.3814 330.062 26.3814C330.211 26.3814 330.377 26.3888 330.561 26.4038C330.75 26.4137 330.907 26.4311 331.031 26.456V28.9393C330.917 28.8995 330.735 28.8647 330.487 28.8349C330.243 28.8001 330.007 28.7827 329.778 28.7827C329.286 28.7827 328.844 28.8896 328.451 29.1033C328.063 29.3121 327.757 29.603 327.534 29.9759C327.31 30.3487 327.198 30.7788 327.198 31.266V38H324.498ZM339.314 38.2237C338.165 38.2237 337.174 37.9851 336.338 37.5078C335.508 37.0256 334.869 36.3445 334.422 35.4645C333.974 34.5795 333.751 33.538 333.751 32.3398C333.751 31.1616 333.974 30.1275 334.422 29.2376C334.874 28.3427 335.506 27.6467 336.316 27.1495C337.126 26.6474 338.078 26.3963 339.172 26.3963C339.878 26.3963 340.544 26.5107 341.171 26.7393C341.802 26.9631 342.359 27.3111 342.841 27.7834C343.328 28.2557 343.711 28.8572 343.99 29.5881C344.268 30.3139 344.407 31.179 344.407 32.1832V33.011H335.018V31.1914H341.82C341.815 30.6744 341.703 30.2145 341.484 29.8118C341.265 29.4041 340.96 29.0835 340.567 28.8498C340.179 28.6161 339.727 28.4993 339.21 28.4993C338.658 28.4993 338.173 28.6335 337.755 28.902C337.338 29.1655 337.012 29.5135 336.778 29.946C336.55 30.3736 336.433 30.8434 336.428 31.3555V32.9439C336.428 33.6101 336.55 34.1818 336.793 34.6591C337.037 35.1314 337.377 35.4943 337.815 35.7479C338.252 35.9964 338.765 36.1207 339.351 36.1207C339.744 36.1207 340.099 36.0661 340.418 35.9567C340.736 35.8423 341.012 35.6758 341.245 35.457C341.479 35.2383 341.656 34.9673 341.775 34.6442L344.295 34.9276C344.136 35.5937 343.833 36.1754 343.386 36.6726C342.943 37.1648 342.376 37.5476 341.685 37.821C340.994 38.0895 340.204 38.2237 339.314 38.2237Z" fill="white"/>
<path d="M30.5381 56V45.0909H34.4266C35.2753 45.0909 35.9784 45.2454 36.5359 45.5543C37.0935 45.8633 37.5107 46.2859 37.7877 46.8221C38.0647 47.3548 38.2032 47.9549 38.2032 48.6225C38.2032 49.2937 38.0629 49.8974 37.7824 50.4336C37.5054 50.9663 37.0864 51.3888 36.5253 51.7013C35.9678 52.0103 35.2664 52.1648 34.4212 52.1648H31.7472V50.7692H34.2721C34.8083 50.7692 35.2433 50.6768 35.5771 50.4922C35.9109 50.304 36.156 50.0483 36.3122 49.7251C36.4685 49.402 36.5466 49.0344 36.5466 48.6225C36.5466 48.2106 36.4685 47.8448 36.3122 47.5252C36.156 47.2056 35.9092 46.9553 35.5718 46.7741C35.238 46.593 34.7977 46.5025 34.2508 46.5025H32.184V56H30.5381ZM42.9476 45.0909V56H41.3549V45.0909H42.9476ZM48.8213 56.1811C48.3029 56.1811 47.8341 56.0852 47.4151 55.8935C46.9961 55.6982 46.664 55.4158 46.419 55.0465C46.1775 54.6772 46.0568 54.2244 46.0568 53.6882C46.0568 53.2266 46.1456 52.8466 46.3231 52.5483C46.5007 52.25 46.7404 52.0138 47.0422 51.8398C47.3441 51.6658 47.6814 51.5344 48.0543 51.4457C48.4272 51.3569 48.8071 51.2894 49.1942 51.2433C49.6843 51.1864 50.082 51.1403 50.3874 51.1048C50.6928 51.0657 50.9147 51.0036 51.0532 50.9183C51.1917 50.8331 51.261 50.6946 51.261 50.5028V50.4656C51.261 50.0004 51.1296 49.6399 50.8668 49.3842C50.6076 49.1286 50.2205 49.0007 49.7056 49.0007C49.1693 49.0007 48.7468 49.1197 48.4378 49.3576C48.1324 49.592 47.9211 49.853 47.8039 50.1406L46.3071 49.7997C46.4847 49.3026 46.7439 48.9013 47.0848 48.5959C47.4293 48.2869 47.8252 48.0632 48.2727 47.9247C48.7201 47.7827 49.1907 47.7116 49.6843 47.7116C50.011 47.7116 50.3572 47.7507 50.723 47.8288C51.0923 47.9034 51.4367 48.0419 51.7564 48.2443C52.0795 48.4467 52.3441 48.7362 52.55 49.1126C52.756 49.4854 52.859 49.9702 52.859 50.5668V56H51.3036V54.8814H51.2397C51.1367 55.0874 50.9822 55.2898 50.7762 55.4886C50.5703 55.6875 50.3057 55.8526 49.9826 55.984C49.6594 56.1154 49.2723 56.1811 48.8213 56.1811ZM49.1676 54.9027C49.6079 54.9027 49.9843 54.8157 50.2968 54.6417C50.6129 54.4677 50.8526 54.2404 51.0159 53.9599C51.1828 53.6758 51.2663 53.3722 51.2663 53.049V51.9943C51.2095 52.0511 51.0994 52.1044 50.936 52.1541C50.7762 52.2003 50.5934 52.2411 50.3874 52.2766C50.1814 52.3086 49.9808 52.3388 49.7855 52.3672C49.5902 52.392 49.4268 52.4134 49.2954 52.4311C48.9865 52.4702 48.7041 52.5359 48.4485 52.6282C48.1963 52.7205 47.9939 52.8537 47.8412 53.0277C47.6921 53.1982 47.6175 53.4254 47.6175 53.7095C47.6175 54.1037 47.7631 54.402 48.0543 54.6044C48.3455 54.8033 48.7166 54.9027 49.1676 54.9027ZM59.7767 56.1651C58.9848 56.1651 58.303 55.9858 57.7313 55.6271C57.1631 55.2649 56.7263 54.766 56.4209 54.1303C56.1155 53.4947 55.9628 52.7667 55.9628 51.9464C55.9628 51.1154 56.119 50.3821 56.4315 49.7464C56.744 49.1072 57.1844 48.6083 57.7526 48.2496C58.3207 47.891 58.9901 47.7116 59.7607 47.7116C60.3822 47.7116 60.9362 47.8271 61.4227 48.0579C61.9092 48.2852 62.3016 48.6048 62.5999 49.0167C62.9017 49.4286 63.081 49.9098 63.1379 50.4602H61.5878C61.5026 50.0767 61.3073 49.7464 61.0019 49.4695C60.7 49.1925 60.2952 49.054 59.7874 49.054C59.3435 49.054 58.9546 49.1712 58.6208 49.4055C58.2906 49.6364 58.0331 49.9666 57.8484 50.3963C57.6638 50.8224 57.5715 51.3267 57.5715 51.9091C57.5715 52.5057 57.662 53.0206 57.8431 53.4538C58.0242 53.8871 58.2799 54.2227 58.6102 54.4606C58.944 54.6985 59.3364 54.8175 59.7874 54.8175C60.0892 54.8175 60.3627 54.7624 60.6077 54.6523C60.8563 54.5387 61.064 54.3771 61.2309 54.1676C61.4014 53.9581 61.5203 53.706 61.5878 53.4112H63.1379C63.081 53.9403 62.9088 54.4126 62.6212 54.8281C62.3335 55.2436 61.9482 55.5703 61.4653 55.8082C60.9859 56.0462 60.423 56.1651 59.7767 56.1651ZM69.7174 56.1651C68.9113 56.1651 68.217 55.9929 67.6346 55.6484C67.0558 55.3004 66.6083 54.8121 66.2923 54.1836C65.9798 53.5515 65.8235 52.8111 65.8235 51.9624C65.8235 51.1243 65.9798 50.3857 66.2923 49.7464C66.6083 49.1072 67.0487 48.6083 67.6133 48.2496C68.1815 47.891 68.8456 47.7116 69.6055 47.7116C70.0671 47.7116 70.5146 47.788 70.9478 47.9407C71.3811 48.0934 71.7699 48.3331 72.1144 48.6598C72.4588 48.9865 72.7305 49.4109 72.9294 49.9329C73.1282 50.4513 73.2277 51.0817 73.2277 51.8239V52.3885H66.7238V51.1953H71.6669C71.6669 50.7763 71.5817 50.4052 71.4113 50.082C71.2408 49.7553 71.0011 49.4979 70.6921 49.3097C70.3868 49.1214 70.0281 49.0273 69.6162 49.0273C69.1687 49.0273 68.7781 49.1374 68.4443 49.3576C68.114 49.5742 67.8583 49.8583 67.6772 50.2099C67.4997 50.5579 67.4109 50.9361 67.4109 51.3445V52.2766C67.4109 52.8235 67.5068 53.2887 67.6985 53.6722C67.8939 54.0558 68.1655 54.3487 68.5135 54.5511C68.8615 54.75 69.2681 54.8494 69.7333 54.8494C70.0352 54.8494 70.3104 54.8068 70.559 54.7216C70.8076 54.6328 71.0224 54.5014 71.2035 54.3274C71.3846 54.1534 71.5231 53.9386 71.619 53.6829L73.1265 53.9545C73.0057 54.3984 72.7891 54.7873 72.4766 55.1211C72.1676 55.4513 71.7788 55.7088 71.31 55.8935C70.8448 56.0746 70.314 56.1651 69.7174 56.1651ZM85.4838 47.8182V49.0966H81.0147V47.8182H85.4838ZM82.2132 45.858H83.8059V53.5977C83.8059 53.9066 83.852 54.1392 83.9443 54.2955C84.0367 54.4482 84.1556 54.5529 84.3012 54.6097C84.4504 54.663 84.612 54.6896 84.786 54.6896C84.9138 54.6896 85.0257 54.6808 85.1215 54.663C85.2174 54.6452 85.292 54.631 85.3453 54.6204L85.6329 55.9361C85.5406 55.9716 85.4092 56.0071 85.2387 56.0426C85.0683 56.0817 84.8552 56.103 84.5995 56.1065C84.1805 56.1136 83.7899 56.0391 83.4277 55.8828C83.0654 55.7266 82.7725 55.4851 82.5487 55.1584C82.325 54.8317 82.2132 54.4215 82.2132 53.9279V45.858ZM90.364 51.142V56H88.7714V45.0909H90.3427V49.1499H90.4439C90.6357 48.7095 90.9287 48.3597 91.3228 48.1005C91.717 47.8413 92.2319 47.7116 92.8676 47.7116C93.4287 47.7116 93.9187 47.8271 94.3378 48.0579C94.7603 48.2887 95.087 48.6332 95.3179 49.0913C95.5522 49.5458 95.6694 50.114 95.6694 50.7958V56H94.0767V50.9876C94.0767 50.3874 93.9223 49.9222 93.6133 49.592C93.3044 49.2582 92.8747 49.0913 92.3243 49.0913C91.9478 49.0913 91.6105 49.1712 91.3122 49.331C91.0174 49.4908 90.7848 49.7251 90.6144 50.0341C90.4475 50.3395 90.364 50.7088 90.364 51.142ZM102.671 56.1651C101.865 56.1651 101.171 55.9929 100.588 55.6484C100.009 55.3004 99.5621 54.8121 99.246 54.1836C98.9335 53.5515 98.7773 52.8111 98.7773 51.9624C98.7773 51.1243 98.9335 50.3857 99.246 49.7464C99.5621 49.1072 100.002 48.6083 100.567 48.2496C101.135 47.891 101.799 47.7116 102.559 47.7116C103.021 47.7116 103.468 47.788 103.902 47.9407C104.335 48.0934 104.724 48.3331 105.068 48.6598C105.413 48.9865 105.684 49.4109 105.883 49.9329C106.082 50.4513 106.181 51.0817 106.181 51.8239V52.3885H99.6775V51.1953H104.621C104.621 50.7763 104.535 50.4052 104.365 50.082C104.195 49.7553 103.955 49.4979 103.646 49.3097C103.34 49.1214 102.982 49.0273 102.57 49.0273C102.122 49.0273 101.732 49.1374 101.398 49.3576C101.068 49.5742 100.812 49.8583 100.631 50.2099C100.453 50.5579 100.365 50.9361 100.365 51.3445V52.2766C100.365 52.8235 100.46 53.2887 100.652 53.6722C100.848 54.0558 101.119 54.3487 101.467 54.5511C101.815 54.75 102.222 54.8494 102.687 54.8494C102.989 54.8494 103.264 54.8068 103.513 54.7216C103.761 54.6328 103.976 54.5014 104.157 54.3274C104.338 54.1534 104.477 53.9386 104.573 53.6829L106.08 53.9545C105.959 54.3984 105.743 54.7873 105.43 55.1211C105.121 55.4513 104.733 55.7088 104.264 55.8935C103.799 56.0746 103.268 56.1651 102.671 56.1651ZM114.618 59.0682V47.8182H116.174V49.1445H116.307C116.399 48.9741 116.532 48.777 116.706 48.5533C116.88 48.3295 117.122 48.1342 117.431 47.9673C117.74 47.7969 118.148 47.7116 118.656 47.7116C119.316 47.7116 119.906 47.8786 120.424 48.2124C120.943 48.5462 121.349 49.0273 121.644 49.6559C121.942 50.2844 122.092 51.0408 122.092 51.9251C122.092 52.8093 121.944 53.5675 121.649 54.1996C121.355 54.8281 120.95 55.3129 120.435 55.6538C119.92 55.9911 119.332 56.1598 118.672 56.1598C118.175 56.1598 117.768 56.0763 117.452 55.9094C117.14 55.7425 116.895 55.5472 116.717 55.3235C116.539 55.0998 116.403 54.9009 116.307 54.7269H116.211V59.0682H114.618ZM116.179 51.9091C116.179 52.4844 116.262 52.9886 116.429 53.4219C116.596 53.8551 116.838 54.1942 117.154 54.4393C117.47 54.6808 117.857 54.8015 118.315 54.8015C118.791 54.8015 119.189 54.6754 119.508 54.4233C119.828 54.1676 120.069 53.8214 120.233 53.3846C120.399 52.9478 120.483 52.456 120.483 51.9091C120.483 51.3693 120.401 50.8846 120.238 50.4549C120.078 50.0252 119.837 49.6861 119.513 49.4375C119.194 49.1889 118.794 49.0646 118.315 49.0646C117.853 49.0646 117.463 49.1836 117.143 49.4215C116.827 49.6594 116.587 49.9915 116.424 50.4176C116.261 50.8437 116.179 51.3409 116.179 51.9091ZM125.226 56V47.8182H126.819V56H125.226ZM126.03 46.5558C125.753 46.5558 125.515 46.4634 125.317 46.2788C125.121 46.0906 125.024 45.8668 125.024 45.6076C125.024 45.3448 125.121 45.1211 125.317 44.9364C125.515 44.7482 125.753 44.6541 126.03 44.6541C126.307 44.6541 126.544 44.7482 126.739 44.9364C126.938 45.1211 127.037 45.3448 127.037 45.6076C127.037 45.8668 126.938 46.0906 126.739 46.2788C126.544 46.4634 126.307 46.5558 126.03 46.5558ZM131.904 51.142V56H130.311V47.8182H131.84V49.1499H131.941C132.13 48.7166 132.424 48.3686 132.826 48.1058C133.23 47.843 133.74 47.7116 134.354 47.7116C134.912 47.7116 135.4 47.8288 135.819 48.0632C136.238 48.294 136.563 48.6385 136.794 49.0966C137.025 49.5547 137.14 50.1211 137.14 50.7958V56H135.548V50.9876C135.548 50.3945 135.393 49.9311 135.084 49.5973C134.775 49.2599 134.351 49.0913 133.811 49.0913C133.442 49.0913 133.113 49.1712 132.826 49.331C132.542 49.4908 132.316 49.7251 132.149 50.0341C131.986 50.3395 131.904 50.7088 131.904 51.142ZM148.327 56.1811C147.809 56.1811 147.34 56.0852 146.921 55.8935C146.502 55.6982 146.17 55.4158 145.925 55.0465C145.683 54.6772 145.562 54.2244 145.562 53.6882C145.562 53.2266 145.651 52.8466 145.829 52.5483C146.006 52.25 146.246 52.0138 146.548 51.8398C146.85 51.6658 147.187 51.5344 147.56 51.4457C147.933 51.3569 148.313 51.2894 148.7 51.2433C149.19 51.1864 149.588 51.1403 149.893 51.1048C150.198 51.0657 150.42 51.0036 150.559 50.9183C150.697 50.8331 150.767 50.6946 150.767 50.5028V50.4656C150.767 50.0004 150.635 49.6399 150.372 49.3842C150.113 49.1286 149.726 49.0007 149.211 49.0007C148.675 49.0007 148.252 49.1197 147.943 49.3576C147.638 49.592 147.427 49.853 147.31 50.1406L145.813 49.7997C145.99 49.3026 146.25 48.9013 146.591 48.5959C146.935 48.2869 147.331 48.0632 147.778 47.9247C148.226 47.7827 148.696 47.7116 149.19 47.7116C149.517 47.7116 149.863 47.7507 150.229 47.8288C150.598 47.9034 150.942 48.0419 151.262 48.2443C151.585 48.4467 151.85 48.7362 152.056 49.1126C152.262 49.4854 152.365 49.9702 152.365 50.5668V56H150.809V54.8814H150.745C150.642 55.0874 150.488 55.2898 150.282 55.4886C150.076 55.6875 149.811 55.8526 149.488 55.984C149.165 56.1154 148.778 56.1811 148.327 56.1811ZM148.673 54.9027C149.114 54.9027 149.49 54.8157 149.803 54.6417C150.119 54.4677 150.358 54.2404 150.522 53.9599C150.689 53.6758 150.772 53.3722 150.772 53.049V51.9943C150.715 52.0511 150.605 52.1044 150.442 52.1541C150.282 52.2003 150.099 52.2411 149.893 52.2766C149.687 52.3086 149.486 52.3388 149.291 52.3672C149.096 52.392 148.932 52.4134 148.801 52.4311C148.492 52.4702 148.21 52.5359 147.954 52.6282C147.702 52.7205 147.5 52.8537 147.347 53.0277C147.198 53.1982 147.123 53.4254 147.123 53.7095C147.123 54.1037 147.269 54.402 147.56 54.6044C147.851 54.8033 148.222 54.9027 148.673 54.9027ZM159.282 56.1651C158.49 56.1651 157.809 55.9858 157.237 55.6271C156.669 55.2649 156.232 54.766 155.927 54.1303C155.621 53.4947 155.468 52.7667 155.468 51.9464C155.468 51.1154 155.625 50.3821 155.937 49.7464C156.25 49.1072 156.69 48.6083 157.258 48.2496C157.826 47.891 158.496 47.7116 159.266 47.7116C159.888 47.7116 160.442 47.8271 160.928 48.0579C161.415 48.2852 161.807 48.6048 162.106 49.0167C162.407 49.4286 162.587 49.9098 162.644 50.4602H161.093C161.008 50.0767 160.813 49.7464 160.508 49.4695C160.206 49.1925 159.801 49.054 159.293 49.054C158.849 49.054 158.46 49.1712 158.126 49.4055C157.796 49.6364 157.539 49.9666 157.354 50.3963C157.169 50.8224 157.077 51.3267 157.077 51.9091C157.077 52.5057 157.168 53.0206 157.349 53.4538C157.53 53.8871 157.786 54.2227 158.116 54.4606C158.45 54.6985 158.842 54.8175 159.293 54.8175C159.595 54.8175 159.868 54.7624 160.113 54.6523C160.362 54.5387 160.57 54.3771 160.737 54.1676C160.907 53.9581 161.026 53.706 161.093 53.4112H162.644C162.587 53.9403 162.414 54.4126 162.127 54.8281C161.839 55.2436 161.454 55.5703 160.971 55.8082C160.492 56.0462 159.929 56.1651 159.282 56.1651ZM169.143 56.1651C168.351 56.1651 167.669 55.9858 167.098 55.6271C166.529 55.2649 166.093 54.766 165.787 54.1303C165.482 53.4947 165.329 52.7667 165.329 51.9464C165.329 51.1154 165.485 50.3821 165.798 49.7464C166.11 49.1072 166.551 48.6083 167.119 48.2496C167.687 47.891 168.357 47.7116 169.127 47.7116C169.749 47.7116 170.303 47.8271 170.789 48.0579C171.276 48.2852 171.668 48.6048 171.966 49.0167C172.268 49.4286 172.447 49.9098 172.504 50.4602H170.954C170.869 50.0767 170.674 49.7464 170.368 49.4695C170.066 49.1925 169.662 49.054 169.154 49.054C168.71 49.054 168.321 49.1712 167.987 49.4055C167.657 49.6364 167.4 49.9666 167.215 50.3963C167.03 50.8224 166.938 51.3267 166.938 51.9091C166.938 52.5057 167.028 53.0206 167.21 53.4538C167.391 53.8871 167.646 54.2227 167.977 54.4606C168.31 54.6985 168.703 54.8175 169.154 54.8175C169.456 54.8175 169.729 54.7624 169.974 54.6523C170.223 54.5387 170.43 54.3771 170.597 54.1676C170.768 53.9581 170.887 53.706 170.954 53.4112H172.504C172.447 53.9403 172.275 54.4126 171.988 54.8281C171.7 55.2436 171.315 55.5703 170.832 55.8082C170.352 56.0462 169.789 56.1651 169.143 56.1651ZM180.74 52.6069V47.8182H182.338V56H180.772V54.5831H180.687C180.499 55.0199 180.197 55.3839 179.782 55.6751C179.37 55.9627 178.856 56.1065 178.242 56.1065C177.717 56.1065 177.251 55.9911 176.847 55.7603C176.445 55.5259 176.129 55.1797 175.898 54.7216C175.671 54.2635 175.557 53.6971 175.557 53.0224V47.8182H177.15V52.8306C177.15 53.3881 177.305 53.832 177.614 54.1623C177.923 54.4925 178.324 54.6577 178.817 54.6577C179.116 54.6577 179.412 54.5831 179.707 54.4339C180.005 54.2848 180.252 54.0593 180.447 53.7575C180.646 53.4556 180.744 53.0721 180.74 52.6069ZM185.828 56V47.8182H187.368V49.1179H187.453C187.602 48.6776 187.865 48.3313 188.241 48.0792C188.621 47.8235 189.051 47.6957 189.53 47.6957C189.63 47.6957 189.747 47.6992 189.882 47.7063C190.021 47.7134 190.129 47.7223 190.207 47.733V49.2564C190.143 49.2386 190.029 49.2191 189.866 49.1978C189.703 49.1729 189.539 49.1605 189.376 49.1605C189 49.1605 188.664 49.2404 188.369 49.4002C188.078 49.5565 187.847 49.7749 187.677 50.0554C187.506 50.3324 187.421 50.6484 187.421 51.0036V56H185.828ZM195.243 56.1811C194.725 56.1811 194.256 56.0852 193.837 55.8935C193.418 55.6982 193.086 55.4158 192.841 55.0465C192.599 54.6772 192.478 54.2244 192.478 53.6882C192.478 53.2266 192.567 52.8466 192.745 52.5483C192.922 52.25 193.162 52.0138 193.464 51.8398C193.766 51.6658 194.103 51.5344 194.476 51.4457C194.849 51.3569 195.229 51.2894 195.616 51.2433C196.106 51.1864 196.504 51.1403 196.809 51.1048C197.114 51.0657 197.336 51.0036 197.475 50.9183C197.613 50.8331 197.683 50.6946 197.683 50.5028V50.4656C197.683 50.0004 197.551 49.6399 197.288 49.3842C197.029 49.1286 196.642 49.0007 196.127 49.0007C195.591 49.0007 195.168 49.1197 194.859 49.3576C194.554 49.592 194.343 49.853 194.226 50.1406L192.729 49.7997C192.906 49.3026 193.166 48.9013 193.507 48.5959C193.851 48.2869 194.247 48.0632 194.694 47.9247C195.142 47.7827 195.612 47.7116 196.106 47.7116C196.433 47.7116 196.779 47.7507 197.145 47.8288C197.514 47.9034 197.858 48.0419 198.178 48.2443C198.501 48.4467 198.766 48.7362 198.972 49.1126C199.178 49.4854 199.281 49.9702 199.281 50.5668V56H197.725V54.8814H197.661C197.558 55.0874 197.404 55.2898 197.198 55.4886C196.992 55.6875 196.727 55.8526 196.404 55.984C196.081 56.1154 195.694 56.1811 195.243 56.1811ZM195.589 54.9027C196.03 54.9027 196.406 54.8157 196.719 54.6417C197.035 54.4677 197.274 54.2404 197.438 53.9599C197.605 53.6758 197.688 53.3722 197.688 53.049V51.9943C197.631 52.0511 197.521 52.1044 197.358 52.1541C197.198 52.2003 197.015 52.2411 196.809 52.2766C196.603 52.3086 196.402 52.3388 196.207 52.3672C196.012 52.392 195.848 52.4134 195.717 52.4311C195.408 52.4702 195.126 52.5359 194.87 52.6282C194.618 52.7205 194.416 52.8537 194.263 53.0277C194.114 53.1982 194.039 53.4254 194.039 53.7095C194.039 54.1037 194.185 54.402 194.476 54.6044C194.767 54.8033 195.138 54.9027 195.589 54.9027ZM206.571 47.8182V49.0966H202.102V47.8182H206.571ZM203.301 45.858H204.893V53.5977C204.893 53.9066 204.94 54.1392 205.032 54.2955C205.124 54.4482 205.243 54.5529 205.389 54.6097C205.538 54.663 205.699 54.6896 205.873 54.6896C206.001 54.6896 206.113 54.6808 206.209 54.663C206.305 54.6452 206.38 54.631 206.433 54.6204L206.72 55.9361C206.628 55.9716 206.497 56.0071 206.326 56.0426C206.156 56.0817 205.943 56.103 205.687 56.1065C205.268 56.1136 204.877 56.0391 204.515 55.8828C204.153 55.7266 203.86 55.4851 203.636 55.1584C203.413 54.8317 203.301 54.4215 203.301 53.9279V45.858ZM213.121 56.1651C212.315 56.1651 211.621 55.9929 211.039 55.6484C210.46 55.3004 210.012 54.8121 209.696 54.1836C209.384 53.5515 209.228 52.8111 209.228 51.9624C209.228 51.1243 209.384 50.3857 209.696 49.7464C210.012 49.1072 210.453 48.6083 211.017 48.2496C211.586 47.891 212.25 47.7116 213.01 47.7116C213.471 47.7116 213.919 47.788 214.352 47.9407C214.785 48.0934 215.174 48.3331 215.518 48.6598C215.863 48.9865 216.135 49.4109 216.333 49.9329C216.532 50.4513 216.632 51.0817 216.632 51.8239V52.3885H210.128V51.1953H215.071C215.071 50.7763 214.986 50.4052 214.815 50.082C214.645 49.7553 214.405 49.4979 214.096 49.3097C213.791 49.1214 213.432 49.0273 213.02 49.0273C212.573 49.0273 212.182 49.1374 211.848 49.3576C211.518 49.5742 211.262 49.8583 211.081 50.2099C210.904 50.5579 210.815 50.9361 210.815 51.3445V52.2766C210.815 52.8235 210.911 53.2887 211.103 53.6722C211.298 54.0558 211.57 54.3487 211.918 54.5511C212.266 54.75 212.672 54.8494 213.137 54.8494C213.439 54.8494 213.715 54.8068 213.963 54.7216C214.212 54.6328 214.427 54.5014 214.608 54.3274C214.789 54.1534 214.927 53.9386 215.023 53.6829L216.531 53.9545C216.41 54.3984 216.193 54.7873 215.881 55.1211C215.572 55.4513 215.183 55.7088 214.714 55.8935C214.249 56.0746 213.718 56.1651 213.121 56.1651ZM221.342 45.0909V56H219.749V45.0909H221.342ZM225.841 59.0682C225.603 59.0682 225.386 59.0487 225.191 59.0096C224.996 58.9741 224.85 58.935 224.754 58.8924L225.138 57.5874C225.429 57.6655 225.688 57.6992 225.916 57.6886C226.143 57.6779 226.343 57.5927 226.517 57.4329C226.695 57.2731 226.851 57.0121 226.986 56.6499L227.183 56.1065L224.19 47.8182H225.894L227.966 54.1676H228.052L230.124 47.8182H231.834L228.462 57.092C228.305 57.5181 228.107 57.8786 227.865 58.1733C227.624 58.4716 227.336 58.6953 227.002 58.8445C226.668 58.9936 226.281 59.0682 225.841 59.0682ZM243.446 56.1651C242.679 56.1651 242.01 55.9893 241.438 55.6378C240.867 55.2862 240.423 54.7944 240.107 54.1623C239.791 53.5302 239.633 52.7915 239.633 51.9464C239.633 51.0977 239.791 50.3555 240.107 49.7198C240.423 49.0842 240.867 48.5906 241.438 48.239C242.01 47.8874 242.679 47.7116 243.446 47.7116C244.213 47.7116 244.883 47.8874 245.455 48.239C246.026 48.5906 246.47 49.0842 246.786 49.7198C247.102 50.3555 247.26 51.0977 247.26 51.9464C247.26 52.7915 247.102 53.5302 246.786 54.1623C246.47 54.7944 246.026 55.2862 245.455 55.6378C244.883 55.9893 244.213 56.1651 243.446 56.1651ZM243.452 54.8281C243.949 54.8281 244.361 54.6967 244.688 54.4339C245.014 54.1712 245.256 53.8214 245.412 53.3846C245.572 52.9478 245.652 52.4666 245.652 51.9411C245.652 51.419 245.572 50.9396 245.412 50.5028C245.256 50.0625 245.014 49.7092 244.688 49.4428C244.361 49.1765 243.949 49.0433 243.452 49.0433C242.951 49.0433 242.536 49.1765 242.205 49.4428C241.879 49.7092 241.635 50.0625 241.476 50.5028C241.319 50.9396 241.241 51.419 241.241 51.9411C241.241 52.4666 241.319 52.9478 241.476 53.3846C241.635 53.8214 241.879 54.1712 242.205 54.4339C242.536 54.6967 242.951 54.8281 243.452 54.8281ZM251.981 51.142V56H250.388V47.8182H251.917V49.1499H252.018C252.206 48.7166 252.501 48.3686 252.902 48.1058C253.307 47.843 253.817 47.7116 254.431 47.7116C254.989 47.7116 255.477 47.8288 255.896 48.0632C256.315 48.294 256.64 48.6385 256.871 49.0966C257.102 49.5547 257.217 50.1211 257.217 50.7958V56H255.624V50.9876C255.624 50.3945 255.47 49.9311 255.161 49.5973C254.852 49.2599 254.428 49.0913 253.888 49.0913C253.518 49.0913 253.19 49.1712 252.902 49.331C252.618 49.4908 252.393 49.7251 252.226 50.0341C252.063 50.3395 251.981 50.7088 251.981 51.142ZM269.842 47.8182V49.0966H265.373V47.8182H269.842ZM266.571 45.858H268.164V53.5977C268.164 53.9066 268.21 54.1392 268.303 54.2955C268.395 54.4482 268.514 54.5529 268.659 54.6097C268.809 54.663 268.97 54.6896 269.144 54.6896C269.272 54.6896 269.384 54.6808 269.48 54.663C269.576 54.6452 269.65 54.631 269.703 54.6204L269.991 55.9361C269.899 55.9716 269.767 56.0071 269.597 56.0426C269.426 56.0817 269.213 56.103 268.958 56.1065C268.539 56.1136 268.148 56.0391 267.786 55.8828C267.424 55.7266 267.131 55.4851 266.907 55.1584C266.683 54.8317 266.571 54.4215 266.571 53.9279V45.858ZM274.722 51.142V56H273.13V45.0909H274.701V49.1499H274.802C274.994 48.7095 275.287 48.3597 275.681 48.1005C276.075 47.8413 276.59 47.7116 277.226 47.7116C277.787 47.7116 278.277 47.8271 278.696 48.0579C279.119 48.2887 279.445 48.6332 279.676 49.0913C279.91 49.5458 280.028 50.114 280.028 50.7958V56H278.435V50.9876C278.435 50.3874 278.28 49.9222 277.972 49.592C277.663 49.2582 277.233 49.0913 276.682 49.0913C276.306 49.0913 275.969 49.1712 275.67 49.331C275.376 49.4908 275.143 49.7251 274.973 50.0341C274.806 50.3395 274.722 50.7088 274.722 51.142ZM287.029 56.1651C286.223 56.1651 285.529 55.9929 284.947 55.6484C284.368 55.3004 283.92 54.8121 283.604 54.1836C283.292 53.5515 283.135 52.8111 283.135 51.9624C283.135 51.1243 283.292 50.3857 283.604 49.7464C283.92 49.1072 284.361 48.6083 284.925 48.2496C285.493 47.891 286.157 47.7116 286.917 47.7116C287.379 47.7116 287.826 47.788 288.26 47.9407C288.693 48.0934 289.082 48.3331 289.426 48.6598C289.771 48.9865 290.042 49.4109 290.241 49.9329C290.44 50.4513 290.54 51.0817 290.54 51.8239V52.3885H284.036V51.1953H288.979C288.979 50.7763 288.894 50.4052 288.723 50.082C288.553 49.7553 288.313 49.4979 288.004 49.3097C287.699 49.1214 287.34 49.0273 286.928 49.0273C286.481 49.0273 286.09 49.1374 285.756 49.3576C285.426 49.5742 285.17 49.8583 284.989 50.2099C284.812 50.5579 284.723 50.9361 284.723 51.3445V52.2766C284.723 52.8235 284.819 53.2887 285.01 53.6722C285.206 54.0558 285.477 54.3487 285.825 54.5511C286.173 54.75 286.58 54.8494 287.045 54.8494C287.347 54.8494 287.622 54.8068 287.871 54.7216C288.119 54.6328 288.334 54.5014 288.515 54.3274C288.697 54.1534 288.835 53.9386 288.931 53.6829L290.438 53.9545C290.318 54.3984 290.101 54.7873 289.788 55.1211C289.48 55.4513 289.091 55.7088 288.622 55.8935C288.157 56.0746 287.626 56.1651 287.029 56.1651ZM298.976 56V47.8182H300.505V49.1499H300.606C300.777 48.6989 301.056 48.3473 301.443 48.0952C301.83 47.8395 302.293 47.7116 302.833 47.7116C303.38 47.7116 303.838 47.8395 304.207 48.0952C304.58 48.3509 304.855 48.7024 305.033 49.1499H305.118C305.313 48.7131 305.624 48.3651 306.05 48.1058C306.476 47.843 306.984 47.7116 307.574 47.7116C308.316 47.7116 308.921 47.9442 309.39 48.4094C309.862 48.8746 310.099 49.576 310.099 50.5135V56H308.506V50.6626C308.506 50.1087 308.355 49.7074 308.053 49.4588C307.751 49.2102 307.391 49.0859 306.972 49.0859C306.453 49.0859 306.05 49.2457 305.763 49.5653C305.475 49.8814 305.331 50.288 305.331 50.7852V56H303.744V50.5614C303.744 50.1175 303.605 49.7607 303.328 49.4908C303.051 49.2209 302.691 49.0859 302.247 49.0859C301.945 49.0859 301.666 49.1658 301.411 49.3256C301.159 49.4819 300.954 49.7003 300.798 49.9808C300.645 50.2614 300.569 50.5863 300.569 50.9556V56H298.976ZM315.964 56.1811C315.446 56.1811 314.977 56.0852 314.558 55.8935C314.139 55.6982 313.807 55.4158 313.562 55.0465C313.32 54.6772 313.2 54.2244 313.2 53.6882C313.2 53.2266 313.288 52.8466 313.466 52.5483C313.644 52.25 313.883 52.0138 314.185 51.8398C314.487 51.6658 314.824 51.5344 315.197 51.4457C315.57 51.3569 315.95 51.2894 316.337 51.2433C316.827 51.1864 317.225 51.1403 317.53 51.1048C317.836 51.0657 318.058 51.0036 318.196 50.9183C318.335 50.8331 318.404 50.6946 318.404 50.5028V50.4656C318.404 50.0004 318.273 49.6399 318.01 49.3842C317.75 49.1286 317.363 49.0007 316.849 49.0007C316.312 49.0007 315.89 49.1197 315.581 49.3576C315.275 49.592 315.064 49.853 314.947 50.1406L313.45 49.7997C313.628 49.3026 313.887 48.9013 314.228 48.5959C314.572 48.2869 314.968 48.0632 315.416 47.9247C315.863 47.7827 316.334 47.7116 316.827 47.7116C317.154 47.7116 317.5 47.7507 317.866 47.8288C318.235 47.9034 318.58 48.0419 318.899 48.2443C319.222 48.4467 319.487 48.7362 319.693 49.1126C319.899 49.4854 320.002 49.9702 320.002 50.5668V56H318.447V54.8814H318.383C318.28 55.0874 318.125 55.2898 317.919 55.4886C317.713 55.6875 317.449 55.8526 317.125 55.984C316.802 56.1154 316.415 56.1811 315.964 56.1811ZM316.311 54.9027C316.751 54.9027 317.127 54.8157 317.44 54.6417C317.756 54.4677 317.996 54.2404 318.159 53.9599C318.326 53.6758 318.409 53.3722 318.409 53.049V51.9943C318.352 52.0511 318.242 52.1044 318.079 52.1541C317.919 52.2003 317.736 52.2411 317.53 52.2766C317.324 52.3086 317.124 52.3388 316.928 52.3672C316.733 52.392 316.57 52.4134 316.438 52.4311C316.129 52.4702 315.847 52.5359 315.591 52.6282C315.339 52.7205 315.137 52.8537 314.984 53.0277C314.835 53.1982 314.76 53.4254 314.76 53.7095C314.76 54.1037 314.906 54.402 315.197 54.6044C315.488 54.8033 315.86 54.9027 316.311 54.9027ZM323.473 59.0682V47.8182H325.029V49.1445H325.162C325.254 48.9741 325.387 48.777 325.561 48.5533C325.735 48.3295 325.977 48.1342 326.286 47.9673C326.595 47.7969 327.003 47.7116 327.511 47.7116C328.171 47.7116 328.761 47.8786 329.279 48.2124C329.798 48.5462 330.204 49.0273 330.499 49.6559C330.798 50.2844 330.947 51.0408 330.947 51.9251C330.947 52.8093 330.799 53.5675 330.505 54.1996C330.21 54.8281 329.805 55.3129 329.29 55.6538C328.775 55.9911 328.187 56.1598 327.527 56.1598C327.03 56.1598 326.623 56.0763 326.307 55.9094C325.995 55.7425 325.75 55.5472 325.572 55.3235C325.394 55.0998 325.258 54.9009 325.162 54.7269H325.066V59.0682H323.473ZM325.034 51.9091C325.034 52.4844 325.117 52.9886 325.284 53.4219C325.451 53.8551 325.693 54.1942 326.009 54.4393C326.325 54.6808 326.712 54.8015 327.17 54.8015C327.646 54.8015 328.044 54.6754 328.363 54.4233C328.683 54.1676 328.924 53.8214 329.088 53.3846C329.255 52.9478 329.338 52.456 329.338 51.9091C329.338 51.3693 329.256 50.8846 329.093 50.4549C328.933 50.0252 328.692 49.6861 328.369 49.4375C328.049 49.1889 327.649 49.0646 327.17 49.0646C326.708 49.0646 326.318 49.1836 325.998 49.4215C325.682 49.6594 325.442 49.9915 325.279 50.4176C325.116 50.8437 325.034 51.3409 325.034 51.9091Z" fill="#999999"/>
</svg>
